<svg width="26" height="26" viewBox="0 0 26 26" fill="none" xmlns="http://www.w3.org/2000/svg">
<g clip-path="url(#clip0_8_641)">
<path d="M24.5375 15.5892L13 23.9742L1.4625 15.5892C1.30783 15.4754 1.1931 15.3157 1.13472 15.1328C1.07635 14.9498 1.07732 14.7532 1.1375 14.5708L2.45917 10.4758L5.1025 2.34C5.12814 2.27371 5.16895 2.21435 5.22167 2.16667C5.30751 2.08826 5.41957 2.04478 5.53583 2.04478C5.6521 2.04478 5.76416 2.08826 5.85 2.16667C5.90566 2.22047 5.94668 2.28759 5.96917 2.36167L8.6125 10.4758H17.3875L20.0308 2.34C20.0565 2.27371 20.0973 2.21435 20.15 2.16667C20.2358 2.08826 20.3479 2.04478 20.4642 2.04478C20.5804 2.04478 20.6925 2.08826 20.7783 2.16667C20.834 2.22047 20.875 2.28759 20.8975 2.36167L23.5408 10.4975L24.9167 14.5708C24.9714 14.7588 24.9641 14.9594 24.8958 15.1428C24.8275 15.3263 24.7018 15.4828 24.5375 15.5892Z" stroke="#1E1E1E" stroke-width="3" stroke-linecap="round" stroke-linejoin="round"/>
</g>
<defs>
<clipPath id="clip0_8_641">
<rect width="26" height="26" fill="white"/>
</clipPath>
</defs>
</svg>
