<svg width="26" height="26" viewBox="0 0 26 26" fill="none" xmlns="http://www.w3.org/2000/svg">
<g clip-path="url(#clip0_8_656)">
<path d="M18.9583 7.04167H18.9692M7.58334 2.16667H18.4167C21.4082 2.16667 23.8333 4.5918 23.8333 7.58334V18.4167C23.8333 21.4082 21.4082 23.8333 18.4167 23.8333H7.58334C4.5918 23.8333 2.16667 21.4082 2.16667 18.4167V7.58334C2.16667 4.5918 4.5918 2.16667 7.58334 2.16667ZM17.3333 12.3175C17.467 13.2191 17.313 14.1399 16.8932 14.9489C16.4735 15.758 15.8092 16.414 14.9951 16.8238C14.181 17.2336 13.2583 17.3762 12.3584 17.2314C11.4586 17.0866 10.6272 16.6618 9.98275 16.0173C9.33825 15.3728 8.91338 14.5415 8.76858 13.6416C8.62378 12.7417 8.76641 11.8191 9.17619 11.0049C9.58598 10.1908 10.242 9.52656 11.0511 9.10677C11.8601 8.68698 12.7809 8.53298 13.6825 8.66667C14.6022 8.80305 15.4536 9.23159 16.111 9.889C16.7684 10.5464 17.197 11.3978 17.3333 12.3175Z" stroke="#1E1E1E" stroke-width="3" stroke-linecap="round" stroke-linejoin="round"/>
</g>
<defs>
<clipPath id="clip0_8_656">
<rect width="26" height="26" fill="white"/>
</clipPath>
</defs>
</svg>
