<svg width="25" height="24" viewBox="0 0 25 24" fill="none" xmlns="http://www.w3.org/2000/svg">
<g clip-path="url(#clip0_8_559)">
<path d="M17.9925 17.94C16.2831 19.243 14.2016 19.9649 12.0525 20C5.05246 20 1.05246 12 1.05246 12C2.29635 9.6819 4.0216 7.65661 6.11246 6.06M9.95246 4.24C10.6408 4.07888 11.3455 3.99834 12.0525 4C19.0525 4 23.0525 12 23.0525 12C22.4454 13.1356 21.7215 14.2047 20.8925 15.19M14.1725 14.12C13.8978 14.4147 13.5666 14.6512 13.1986 14.8151C12.8306 14.9791 12.4334 15.0673 12.0306 15.0744C11.6277 15.0815 11.2276 15.0074 10.8541 14.8565C10.4805 14.7056 10.1412 14.481 9.85631 14.1962C9.57143 13.9113 9.34685 13.5719 9.19597 13.1984C9.04508 12.8248 8.97099 12.4247 8.97809 12.0219C8.9852 11.6191 9.07337 11.2218 9.23734 10.8538C9.4013 10.4859 9.63771 10.1546 9.93246 9.88M1.05246 1L23.0525 23" stroke="#1E1E1E" stroke-width="2.5" stroke-linecap="round" stroke-linejoin="round"/>
</g>
<defs>
<clipPath id="clip0_8_559">
<rect width="24" height="24" fill="white" transform="translate(0.0524597)"/>
</clipPath>
</defs>
</svg>
