<svg width="26" height="26" viewBox="0 0 26 26" fill="none" xmlns="http://www.w3.org/2000/svg">
<g clip-path="url(#clip0_8_609)">
<path d="M9.75 20.5833C4.33333 22.2083 4.33333 17.875 2.16667 17.3333M17.3333 23.8333V19.6408C17.374 19.1243 17.3042 18.605 17.1286 18.1174C16.953 17.6299 16.6757 17.1854 16.315 16.8133C19.7167 16.4342 23.2917 15.145 23.2917 9.23C23.2914 7.71748 22.7096 6.26296 21.6667 5.1675C22.1605 3.84421 22.1256 2.38154 21.5692 1.08333C21.5692 1.08333 20.2908 0.704165 17.3333 2.68667C14.8503 2.01372 12.233 2.01372 9.75 2.68667C6.7925 0.704165 5.51417 1.08333 5.51417 1.08333C4.95774 2.38154 4.92282 3.84421 5.41667 5.1675C4.36597 6.27109 3.78357 7.73875 3.79167 9.2625C3.79167 15.1342 7.36667 16.4233 10.7683 16.8458C10.4119 17.2141 10.137 17.6534 9.96158 18.1349C9.78613 18.6165 9.71404 19.1296 9.75 19.6408V23.8333" stroke="#1E1E1E" stroke-width="3" stroke-linecap="round" stroke-linejoin="round"/>
</g>
<defs>
<clipPath id="clip0_8_609">
<rect width="26" height="26" fill="white"/>
</clipPath>
</defs>
</svg>
