<svg width="99" height="98" viewBox="0 0 99 98" fill="none" xmlns="http://www.w3.org/2000/svg">
<g clip-path="url(#clip0_8_734)">
<path d="M104 0H0V98H104V0Z" fill="white"/>
<path d="M21.6467 68.135V67.4029H28.5554V68.135H25.4936V73.9131H24.7167V68.135H21.6467ZM30.4076 67.4029H35.0127C35.3331 67.4029 35.6052 67.5084 35.8291 67.7195C36.0531 67.9305 36.1651 68.1866 36.1651 68.4878V72.8282C36.1651 73.1294 36.0531 73.3855 35.8291 73.5965C35.6052 73.8076 35.3331 73.9131 35.0127 73.9131H30.4076C30.0873 73.9131 29.8152 73.8076 29.5912 73.5965C29.3673 73.3855 29.2553 73.1294 29.2553 72.8282V68.4878C29.2553 68.1866 29.3673 67.9305 29.5912 67.7195C29.8152 67.5084 30.0873 67.4029 30.4076 67.4029ZM30.4076 73.181H35.0127C35.1154 73.181 35.2034 73.1464 35.2769 73.0771C35.3504 73.0072 35.3871 72.9242 35.3871 72.8282V68.4878C35.3871 68.3911 35.3504 68.3081 35.2769 68.2389C35.2034 68.1696 35.1154 68.135 35.0127 68.135H30.4076C30.305 68.135 30.217 68.1696 30.1435 68.2389C30.07 68.3081 30.0332 68.3911 30.0332 68.4878V72.8282C30.0332 72.9242 30.07 73.0072 30.1435 73.0771C30.217 73.1464 30.305 73.181 30.4076 73.181ZM37.2207 73.9131V67.4117H42.9781C43.2977 67.4117 43.5695 67.5173 43.7935 67.7283C44.0174 67.9393 44.1294 68.1954 44.1294 68.4966V70.4047C44.1294 70.7059 44.0174 70.962 43.7935 71.173C43.5695 71.384 43.2977 71.4895 42.9781 71.4895H38.3719C38.3144 71.4895 38.1896 71.4774 37.9975 71.4533V73.9131H37.2207ZM43.3515 70.4047V68.4966C43.3515 68.4006 43.3147 68.3176 43.2412 68.2477C43.1677 68.1784 43.08 68.1438 42.9781 68.1438H38.3719C38.2693 68.1438 38.1813 68.1784 38.1078 68.2477C38.0343 68.3176 37.9975 68.4006 37.9975 68.4966V70.4047C37.9975 70.5014 38.0343 70.5827 38.1078 70.6487C38.1813 70.7153 38.2693 70.7486 38.3719 70.7486H42.9781C43.08 70.7486 43.1677 70.7153 43.2412 70.6487C43.3147 70.5827 43.3515 70.5014 43.3515 70.4047ZM51.7006 67.4029V68.135H45.9619C45.8599 68.135 45.7719 68.1696 45.6977 68.2389C45.6242 68.3081 45.5875 68.3911 45.5875 68.4878V72.8282C45.5875 72.9242 45.6242 73.0072 45.6977 73.0771C45.7719 73.1464 45.8599 73.181 45.9619 73.181H51.7006V73.9131H45.9619C45.6422 73.9131 45.3705 73.8076 45.1465 73.5965C44.9226 73.3855 44.8106 73.1294 44.8106 72.8282V68.4878C44.8106 68.1866 44.9226 67.9305 45.1465 67.7195C45.3705 67.5084 45.6422 67.4029 45.9619 67.4029H51.7006ZM53.8305 67.4029H58.4367C58.7563 67.4029 59.0281 67.5084 59.252 67.7195C59.476 67.9305 59.5879 68.1866 59.5879 68.4878V72.8282C59.5879 73.1294 59.476 73.3855 59.252 73.5965C59.0281 73.8076 58.7563 73.9131 58.4367 73.9131H53.8305C53.5109 73.9131 53.2391 73.8076 53.0151 73.5965C52.7912 73.3855 52.6792 73.1294 52.6792 72.8282V68.4878C52.6792 68.1866 52.7912 67.9305 53.0151 67.7195C53.2391 67.5084 53.5109 67.4029 53.8305 67.4029ZM53.8305 73.181H58.4367C58.5393 73.181 58.6273 73.1464 58.7008 73.0771C58.7743 73.0072 58.8111 72.9242 58.8111 72.8282V68.4878C58.8111 68.3911 58.7743 68.3081 58.7008 68.2389C58.6273 68.1696 58.5393 68.135 58.4367 68.135H53.8305C53.7279 68.135 53.6398 68.1696 53.5663 68.2389C53.4929 68.3081 53.4561 68.3911 53.4561 68.4878V72.8282C53.4561 72.9242 53.4929 73.0072 53.5663 73.0771C53.6398 73.1464 53.7279 73.181 53.8305 73.181ZM60.6633 73.9131V67.4029H66.4207C66.7404 67.4029 67.0122 67.5084 67.2361 67.7195C67.4601 67.9305 67.572 68.1866 67.572 68.4878V72.8282C67.572 73.1294 67.4601 73.3855 67.2361 73.5965C67.0122 73.8076 66.7404 73.9131 66.4207 73.9131H60.6633ZM66.7941 72.8282V68.4878C66.7941 68.3911 66.7574 68.3081 66.6839 68.2389C66.6104 68.1696 66.5227 68.135 66.4207 68.135H61.8146C61.712 68.135 61.6239 68.1696 61.5504 68.2389C61.4769 68.3081 61.4402 68.3911 61.4402 68.4878V72.8282C61.4402 72.9242 61.4769 73.0072 61.5504 73.0771C61.6239 73.1464 61.712 73.181 61.8146 73.181H66.4207C66.5227 73.181 66.6104 73.1464 66.6839 73.0771C66.7574 73.0072 66.7941 72.9242 66.7941 72.8282ZM68.6661 67.4029H74.9706V68.135H69.443V70.2871H73.8859V71.0289H69.443V73.181H74.9706V73.9131H68.6661V67.4029ZM82.8964 68.4966V70.4047C82.8964 70.7059 82.7845 70.962 82.5605 71.173C82.3366 71.384 82.0648 71.4895 81.7451 71.4895H80.6895L82.8579 73.9131H81.8315L79.6724 71.4895H77.139C77.0814 71.4895 76.9566 71.4774 76.7646 71.4533V73.9131H75.9877V67.4117H81.7451C82.0648 67.4117 82.3366 67.5173 82.5605 67.7283C82.7845 67.9393 82.8964 68.1954 82.8964 68.4966ZM77.139 70.7486H81.7451C81.8471 70.7486 81.9334 70.7153 82.0041 70.6487C82.0741 70.5827 82.1091 70.5014 82.1091 70.4047V68.4966C82.1091 68.4006 82.0741 68.3176 82.0041 68.2477C81.9334 68.1784 81.8471 68.1438 81.7451 68.1438H77.139C77.0364 68.1438 76.9483 68.1784 76.8748 68.2477C76.8013 68.3176 76.7646 68.4006 76.7646 68.4966V70.4047C76.7646 70.5014 76.8013 70.5827 76.8748 70.6487C76.9483 70.7153 77.0364 70.7486 77.139 70.7486Z" fill="#3E485B"/>
<path d="M18.6827 84.7589V78.2488H24.9871V78.9808H19.4606V81.1329H23.9035V81.8748H19.4606V84.7589H18.6827ZM31.7139 83.674V78.2488H32.4907V83.674C32.4907 83.9752 32.3791 84.2313 32.1559 84.4424C31.9319 84.6534 31.6598 84.7589 31.3395 84.7589H26.7333C26.4137 84.7589 26.1419 84.6534 25.9179 84.4424C25.694 84.2313 25.582 83.9752 25.582 83.674V78.2488H26.3599V83.674C26.3599 83.7701 26.3967 83.853 26.4702 83.923C26.5437 83.9922 26.6314 84.0268 26.7333 84.0268H31.3395C31.4421 84.0268 31.5301 83.9922 31.6036 83.923C31.6771 83.853 31.7139 83.7701 31.7139 83.674ZM40.4655 84.7589H33.5567V78.239H34.3336V84.0268H40.4655V84.7589ZM47.941 84.7589H41.0312V78.239H41.8091V84.0268H47.941V84.7589ZM55.3583 79.3336V79.5865H54.5803V79.3336C54.5803 79.2369 54.5436 79.1539 54.4701 79.0847C54.3966 79.0154 54.3089 78.9808 54.207 78.9808H49.6008C49.4982 78.9808 49.4102 79.0154 49.3367 79.0847C49.2632 79.1539 49.2264 79.2369 49.2264 79.3336V80.7889C49.2264 80.8856 49.2632 80.9673 49.3367 81.0339C49.4102 81.0999 49.4982 81.1329 49.6008 81.1329H54.207C54.5266 81.1329 54.7984 81.2384 55.0223 81.4494C55.2463 81.6605 55.3583 81.9166 55.3583 82.2178V83.674C55.3583 83.9752 55.2463 84.2313 55.0223 84.4424C54.7984 84.6534 54.5266 84.7589 54.207 84.7589H49.6008C49.2805 84.7589 49.0087 84.6534 48.7855 84.4424C48.5615 84.2313 48.4495 83.9752 48.4495 83.674V83.4202H49.2264V83.674C49.2264 83.7701 49.2632 83.853 49.3367 83.923C49.4102 83.9922 49.4982 84.0268 49.6008 84.0268H54.207C54.3089 84.0268 54.3966 83.9922 54.4701 83.923C54.5436 83.853 54.5803 83.7701 54.5803 83.674V82.2178C54.5803 82.1217 54.5436 82.0404 54.4701 81.9737C54.3966 81.9077 54.3089 81.8748 54.207 81.8748H49.6008C49.2805 81.8748 49.0087 81.7692 48.7855 81.5582C48.5615 81.3472 48.4495 81.0908 48.4495 80.7889V79.3336C48.4495 79.0324 48.5615 78.7763 48.7855 78.5653C49.0087 78.3543 49.2805 78.2488 49.6008 78.2488H54.207C54.5266 78.2488 54.7984 78.3543 55.0223 78.5653C55.2463 78.7763 55.3583 79.0324 55.3583 79.3336ZM56.0395 78.9808V78.2488H62.9482V78.9808H59.8875V84.7589H59.1106V78.9808H56.0395ZM64.8389 78.2488H69.4451C69.7647 78.2488 70.0365 78.3543 70.2604 78.5653C70.4844 78.7763 70.5963 79.0324 70.5963 79.3336V84.7589H69.8195V82.3804H64.4645V84.7589H63.6876V79.3336C63.6876 79.0324 63.7996 78.7763 64.0235 78.5653C64.2475 78.3543 64.5193 78.2488 64.8389 78.2488ZM64.4645 79.3336V81.6484H69.8195V79.3336C69.8195 79.2369 69.7824 79.1539 69.7082 79.0847C69.6347 79.0154 69.547 78.9808 69.4451 78.9808H64.8389C64.7363 78.9808 64.6482 79.0154 64.5747 79.0847C64.5012 79.1539 64.4645 79.2369 64.4645 79.3336ZM78.5804 78.2488V78.9808H72.8417C72.7391 78.9808 72.651 79.0154 72.5775 79.0847C72.504 79.1539 72.4673 79.2369 72.4673 79.3336V83.674C72.4673 83.7701 72.504 83.853 72.5775 83.923C72.651 83.9922 72.7391 84.0268 72.8417 84.0268H78.5804V84.7589H72.8417C72.5221 84.7589 72.2503 84.6534 72.0263 84.4424C71.8024 84.2313 71.6904 83.9752 71.6904 83.674V79.3336C71.6904 79.0324 71.8024 78.7763 72.0263 78.5653C72.2503 78.3543 72.5221 78.2488 72.8417 78.2488H78.5804ZM82.6011 81.1329L85.1719 78.2488H86.1703L83.2823 81.5033L86.1797 84.7589H85.1719L82.6011 81.8748H80.3744V84.7589H79.5871V78.2488H80.3744V81.1329H82.6011Z" fill="#3E485B"/>
<path d="M46.5868 56.9451C43.3611 60.0113 38.1103 60.0336 34.8587 56.9961L28.6946 51.2381C27.2599 47.8493 26.5301 44.2633 28.9435 41.6658L31.4866 39.3389C32.8598 37.7464 34.0013 35.9245 35.2153 35.2528L35.6183 35.6868L46.5423 45.8901C49.7935 48.9281 49.815 53.8764 46.5868 56.9451Z" fill="#959595"/>
<path d="M46.4623 25.5715L35.7187 35.784C35.7124 35.7846 35.7124 35.7846 35.7099 35.787L35.1108 36.3451L28.9236 30.1431C26.2862 27.5301 27.0158 22.222 28.617 20.364L28.7326 20.2189L34.6815 14.5668C37.9092 11.4987 43.1599 11.4759 46.4142 14.5157C49.6652 17.5526 49.6868 22.5005 46.4623 25.5715Z" fill="#BFBFBF"/>
<path d="M35.7221 35.7838L35.7474 35.8075L35.7221 35.7838L35.7503 35.757L35.7221 35.7838Z" fill="url(#paint0_linear_8_734)"/>
<path d="M28.8032 51.337L28.7313 51.2699C27.2967 47.8812 27.0179 44.3534 29.4312 41.756L31.7756 39.5275C33.1488 37.9351 34.4992 36.4563 35.7134 35.7844L35.7191 35.7789L29.403 29.8789C26.7655 27.2657 27.0184 22.2193 28.62 20.3609L28.8082 20.182L28.8197 20.1928C28.7797 20.2307 28.7399 20.2795 28.6971 20.3255C28.6826 20.3447 28.6658 20.3661 28.6516 20.3851C27.851 21.314 27.3975 23.0184 27.4627 24.8366C27.5079 26.0235 27.8211 28.2561 29.4344 29.8544L35.7505 35.7545L35.722 35.7816L35.7479 35.8058L35.7331 35.8199C34.4854 36.5074 33.055 38.1054 31.8067 39.5522L29.46 41.7829C26.7928 44.6541 27.611 48.5198 28.7685 51.2557L28.8032 51.337Z" fill="url(#paint1_linear_8_734)"/>
<path d="M29.4315 41.7563L35.7134 35.7849L35.7194 35.7792L29.4032 29.8791C26.7663 27.2654 27.0192 22.219 28.6202 20.3612L28.8084 20.1823L28.7912 20.1662L16.9323 31.5363C15.1929 33.1897 14.6511 35.5361 15.2895 37.6221C15.6 38.5678 16.1479 39.4612 16.9471 40.2077L23.1024 45.9844L28.2883 50.8566L28.731 51.2701C27.2961 47.8817 27.0174 44.3539 29.4315 41.7563Z" fill="#6A6A6A"/>
<path d="M57.7133 57.0101C60.9723 60.0401 66.2223 60.0044 69.4398 56.9316L75.5392 51.1066C76.9362 47.7025 77.6262 44.1092 75.1845 41.5388L72.6162 39.2404C71.2257 37.6634 70.0643 35.8544 68.8431 35.1962L68.445 35.6346L57.6356 45.9567C54.4187 49.03 54.4518 53.9777 57.7133 57.0101Z" fill="#EAEAEA"/>
<path d="M57.4713 25.6385L68.3284 35.733C68.3347 35.7335 68.3347 35.7335 68.3373 35.7359L68.9426 36.2874L75.0616 30.0167C77.6703 27.3744 76.8821 22.074 75.2602 20.2336L75.143 20.0897L69.1313 14.503C65.8695 11.4703 60.6182 11.5055 57.3973 14.5815C54.1796 17.6545 54.2127 22.6029 57.4713 25.6385Z" fill="#6A6A6A"/>
<path d="M68.3334 35.7325L68.3084 35.7564L68.3334 35.7325L68.3049 35.706L68.3334 35.7325Z" fill="url(#paint2_linear_8_734)"/>
<path d="M75.4236 51.2126L75.4948 51.1447C76.8919 47.7404 77.1317 44.2097 74.6899 41.6391L72.321 39.4366C70.9303 37.8595 69.5636 36.3957 68.342 35.7372L68.3363 35.7319L74.5869 29.7624C77.1954 27.1202 76.8868 22.0769 75.2647 20.2363L75.0746 20.0595L75.0632 20.0704C75.1035 20.1079 75.1439 20.1562 75.1872 20.2018C75.2019 20.2208 75.219 20.242 75.2334 20.2608C76.0441 21.1808 76.5165 22.8802 76.4714 24.699C76.4393 25.8863 76.1507 28.1223 74.5552 29.7383L68.3046 35.7078L68.3334 35.7346L68.3078 35.759L68.3228 35.773C69.578 36.4466 71.0259 38.0288 72.2902 39.4617L74.6614 41.6663C77.3602 44.5079 76.5847 48.3824 75.4575 51.1309L75.4236 51.2126Z" fill="url(#paint3_linear_8_734)"/>
<path d="M74.6896 41.6394L68.342 35.7378L68.336 35.7322L74.5866 29.7627C77.1945 27.12 76.8859 22.0766 75.2644 20.2366L75.0743 20.0598L75.0914 20.0435L87.0752 31.282C88.8327 32.9161 89.4004 35.2564 88.785 37.3493C88.485 38.2984 87.947 39.1977 87.1561 39.9531L81.065 45.7974L75.9332 50.7266L75.495 51.145C76.8924 47.7409 77.1322 44.2103 74.6896 41.6394Z" fill="#151515"/>
</g>
<defs>
<linearGradient id="paint0_linear_8_734" x1="63.461" y1="-7.49265" x2="67.4662" y2="-7.51006" gradientUnits="userSpaceOnUse">
<stop stop-color="#6366F2"/>
<stop offset="1" stop-color="#05ACF1"/>
</linearGradient>
<linearGradient id="paint1_linear_8_734" x1="52.2162" y1="-1087.42" x2="2399.98" y2="-1097.64" gradientUnits="userSpaceOnUse">
<stop stop-color="#6366F2"/>
<stop offset="1" stop-color="#05ACF1"/>
</linearGradient>
<linearGradient id="paint2_linear_8_734" x1="43.1128" y1="29.5418" x2="42.7657" y2="33.3026" gradientUnits="userSpaceOnUse">
<stop stop-color="#00EFC8"/>
<stop offset="1" stop-color="#2C94EA"/>
</linearGradient>
<linearGradient id="paint3_linear_8_734" x1="-1096.53" y1="-82.1557" x2="-1299.96" y2="2122.17" gradientUnits="userSpaceOnUse">
<stop stop-color="#00EFC8"/>
<stop offset="1" stop-color="#2C94EA"/>
</linearGradient>
<clipPath id="clip0_8_734">
<rect width="104" height="98" fill="white"/>
</clipPath>
</defs>
</svg>
